<svg width="115" height="30" viewBox="0 0 115 30" fill="none" xmlns="http://www.w3.org/2000/svg">
<path d="M1.92 7.368H5.664V24H1.92V7.368Z" fill="#7AEEF1"/>
<path d="M9.27375 11.808C9.88175 11.632 10.6658 11.472 11.6258 11.328C12.5858 11.168 13.5938 11.088 14.6497 11.088C15.7218 11.088 16.6098 11.232 17.3138 11.52C18.0338 11.792 18.6018 12.184 19.0178 12.696C19.4338 13.208 19.7298 13.816 19.9058 14.52C20.0818 15.224 20.1698 16.008 20.1698 16.872V24H16.5938V17.304C16.5938 16.152 16.4418 15.336 16.1378 14.856C15.8338 14.376 15.2658 14.136 14.4338 14.136C14.1778 14.136 13.9058 14.152 13.6178 14.184C13.3298 14.2 13.0738 14.224 12.8498 14.256V24H9.27375V11.808ZM23.2866 8.232L26.8626 7.656V11.376H31.1586V14.352H26.8626V18.792C26.8626 19.544 26.9906 20.144 27.2466 20.592C27.5186 21.04 28.0546 21.264 28.8546 21.264C29.2386 21.264 29.6306 21.232 30.0306 21.168C30.4466 21.088 30.8226 20.984 31.1586 20.856L31.6626 23.64C31.2306 23.816 30.7506 23.968 30.2226 24.096C29.6946 24.224 29.0466 24.288 28.2786 24.288C27.3026 24.288 26.4946 24.16 25.8546 23.904C25.2146 23.632 24.7026 23.264 24.3186 22.8C23.9346 22.32 23.6626 21.744 23.5026 21.072C23.3586 20.4 23.2866 19.656 23.2866 18.84V8.232ZM33.0019 17.784C33.0019 16.664 33.1699 15.688 33.5059 14.856C33.8579 14.008 34.3139 13.304 34.8739 12.744C35.4339 12.184 36.0739 11.76 36.7939 11.472C37.5299 11.184 38.2819 11.04 39.0499 11.04C40.8419 11.04 42.2579 11.592 43.2979 12.696C44.3379 13.784 44.8579 15.392 44.8579 17.52C44.8579 17.728 44.8499 17.96 44.8339 18.216C44.8179 18.456 44.8019 18.672 44.7859 18.864H36.6739C36.7539 19.6 37.0979 20.184 37.7059 20.616C38.3139 21.048 39.1299 21.264 40.1539 21.264C40.8099 21.264 41.4499 21.208 42.0739 21.096C42.7139 20.968 43.2339 20.816 43.6339 20.64L44.1139 23.544C43.9219 23.64 43.6659 23.736 43.3459 23.832C43.0259 23.928 42.6659 24.008 42.2659 24.072C41.8819 24.152 41.4659 24.216 41.0179 24.264C40.5699 24.312 40.1219 24.336 39.6739 24.336C38.5379 24.336 37.5459 24.168 36.6979 23.832C35.8659 23.496 35.1699 23.04 34.6099 22.464C34.0659 21.872 33.6579 21.176 33.3859 20.376C33.1299 19.576 33.0019 18.712 33.0019 17.784ZM41.4019 16.416C41.3859 16.112 41.3299 15.816 41.2339 15.528C41.1539 15.24 41.0179 14.984 40.8259 14.76C40.6499 14.536 40.4179 14.352 40.1299 14.208C39.8579 14.064 39.5139 13.992 39.0979 13.992C38.6979 13.992 38.3539 14.064 38.0659 14.208C37.7779 14.336 37.5379 14.512 37.3459 14.736C37.1539 14.96 37.0019 15.224 36.8899 15.528C36.7939 15.816 36.7219 16.112 36.6739 16.416H41.4019ZM55.2255 14.544C54.9055 14.464 54.5295 14.384 54.0975 14.304C53.6655 14.208 53.2015 14.16 52.7055 14.16C52.4815 14.16 52.2095 14.184 51.8895 14.232C51.5855 14.264 51.3535 14.304 51.1935 14.352V24H47.6175V12.048C48.2575 11.824 49.0095 11.616 49.8735 11.424C50.7535 11.216 51.7295 11.112 52.8015 11.112C52.9935 11.112 53.2255 11.128 53.4975 11.16C53.7695 11.176 54.0415 11.208 54.3135 11.256C54.5855 11.288 54.8575 11.336 55.1295 11.4C55.4015 11.448 55.6335 11.512 55.8255 11.592L55.2255 14.544ZM65.5665 24.336C62.8625 24.336 60.7985 23.584 59.3745 22.08C57.9665 20.576 57.2625 18.44 57.2625 15.672C57.2625 14.296 57.4785 13.072 57.9105 12C58.3425 10.912 58.9345 10 59.6865 9.264C60.4385 8.512 61.3345 7.944 62.3745 7.56C63.4145 7.176 64.5425 6.984 65.7585 6.984C66.4625 6.984 67.1025 7.04 67.6785 7.152C68.2545 7.248 68.7585 7.368 69.1905 7.512C69.6225 7.64 69.9825 7.776 70.2705 7.92C70.5585 8.064 70.7665 8.176 70.8945 8.256L69.8145 11.28C69.3025 11.008 68.7025 10.776 68.0145 10.584C67.3425 10.392 66.5745 10.296 65.7105 10.296C65.1345 10.296 64.5665 10.392 64.0065 10.584C63.4625 10.776 62.9745 11.088 62.5425 11.52C62.1265 11.936 61.7905 12.48 61.5345 13.152C61.2785 13.824 61.1505 14.64 61.1505 15.6C61.1505 16.368 61.2305 17.088 61.3905 17.76C61.5665 18.416 61.8385 18.984 62.2065 19.464C62.5905 19.944 63.0865 20.328 63.6945 20.616C64.3025 20.888 65.0385 21.024 65.9025 21.024C66.4465 21.024 66.9345 20.992 67.3665 20.928C67.7985 20.864 68.1825 20.792 68.5185 20.712C68.8545 20.616 69.1505 20.512 69.4065 20.4C69.6625 20.288 69.8945 20.184 70.1025 20.088L71.1345 23.088C70.6065 23.408 69.8625 23.696 68.9025 23.952C67.9425 24.208 66.8305 24.336 65.5665 24.336ZM84.8318 17.664C84.8318 18.656 84.6878 19.568 84.3998 20.4C84.1118 21.216 83.6958 21.92 83.1518 22.512C82.6078 23.088 81.9518 23.536 81.1838 23.856C80.4318 24.176 79.5838 24.336 78.6398 24.336C77.7118 24.336 76.8638 24.176 76.0958 23.856C75.3438 23.536 74.6958 23.088 74.1518 22.512C73.6078 21.92 73.1838 21.216 72.8798 20.4C72.5758 19.568 72.4238 18.656 72.4238 17.664C72.4238 16.672 72.5758 15.768 72.8798 14.952C73.1998 14.136 73.6318 13.44 74.1758 12.864C74.7358 12.288 75.3918 11.84 76.1438 11.52C76.9118 11.2 77.7438 11.04 78.6398 11.04C79.5518 11.04 80.3838 11.2 81.1358 11.52C81.9038 11.84 82.5598 12.288 83.1038 12.864C83.6478 13.44 84.0718 14.136 84.3758 14.952C84.6798 15.768 84.8318 16.672 84.8318 17.664ZM81.1838 17.664C81.1838 16.56 80.9598 15.696 80.5118 15.072C80.0798 14.432 79.4558 14.112 78.6398 14.112C77.8238 14.112 77.1918 14.432 76.7438 15.072C76.2958 15.696 76.0718 16.56 76.0718 17.664C76.0718 18.768 76.2958 19.648 76.7438 20.304C77.1918 20.944 77.8238 21.264 78.6398 21.264C79.4558 21.264 80.0798 20.944 80.5118 20.304C80.9598 19.648 81.1838 18.768 81.1838 17.664ZM90.6499 17.592C90.6499 18.696 90.8979 19.584 91.3939 20.256C91.8899 20.928 92.6259 21.264 93.6019 21.264C93.9219 21.264 94.2179 21.256 94.4899 21.24C94.7619 21.208 94.9859 21.176 95.1619 21.144V14.64C94.9379 14.496 94.6419 14.376 94.2739 14.28C93.9219 14.184 93.5619 14.136 93.1939 14.136C91.4979 14.136 90.6499 15.288 90.6499 17.592ZM98.7379 23.592C98.4179 23.688 98.0499 23.784 97.6339 23.88C97.2179 23.96 96.7779 24.032 96.3139 24.096C95.8659 24.16 95.4019 24.208 94.9219 24.24C94.4579 24.288 94.0099 24.312 93.5779 24.312C92.5379 24.312 91.6099 24.16 90.7939 23.856C89.9779 23.552 89.2899 23.12 88.7299 22.56C88.1699 21.984 87.7379 21.296 87.4339 20.496C87.1459 19.68 87.0019 18.768 87.0019 17.76C87.0019 16.736 87.1299 15.816 87.3859 15C87.6419 14.168 88.0099 13.464 88.4899 12.888C88.9699 12.312 89.5539 11.872 90.2419 11.568C90.9459 11.264 91.7459 11.112 92.6419 11.112C93.1379 11.112 93.5779 11.16 93.9619 11.256C94.3619 11.352 94.7619 11.488 95.1619 11.664V5.952L98.7379 5.376V23.592ZM101.486 17.784C101.486 16.664 101.654 15.688 101.99 14.856C102.342 14.008 102.798 13.304 103.358 12.744C103.918 12.184 104.558 11.76 105.278 11.472C106.014 11.184 106.766 11.04 107.534 11.04C109.326 11.04 110.742 11.592 111.782 12.696C112.822 13.784 113.342 15.392 113.342 17.52C113.342 17.728 113.334 17.96 113.318 18.216C113.302 18.456 113.286 18.672 113.27 18.864H105.158C105.238 19.6 105.582 20.184 106.19 20.616C106.798 21.048 107.614 21.264 108.638 21.264C109.294 21.264 109.934 21.208 110.558 21.096C111.198 20.968 111.718 20.816 112.118 20.64L112.598 23.544C112.406 23.64 112.15 23.736 111.83 23.832C111.51 23.928 111.15 24.008 110.75 24.072C110.366 24.152 109.95 24.216 109.502 24.264C109.054 24.312 108.606 24.336 108.158 24.336C107.022 24.336 106.03 24.168 105.182 23.832C104.35 23.496 103.654 23.04 103.094 22.464C102.55 21.872 102.142 21.176 101.87 20.376C101.614 19.576 101.486 18.712 101.486 17.784ZM109.886 16.416C109.87 16.112 109.814 15.816 109.718 15.528C109.638 15.24 109.502 14.984 109.31 14.76C109.134 14.536 108.902 14.352 108.614 14.208C108.342 14.064 107.998 13.992 107.582 13.992C107.182 13.992 106.838 14.064 106.55 14.208C106.262 14.336 106.022 14.512 105.83 14.736C105.638 14.96 105.486 15.224 105.374 15.528C105.278 15.816 105.206 16.112 105.158 16.416H109.886Z" fill="white"/>
<rect x="102" y="27" width="12" height="3" fill="#7AEEF1"/>
</svg>
